C:\Users\u0145647\OneDrive - KU Leuven\KU Leuven\BCN_Workshop\ParameterEstimation\Data_CP1\IPSA\JointAngles\JointAngles_segment_16.mot
version=1
nRows=58
nColumns=4
inDegrees=yes
endheader
                time	         pelvis_tilt	       hip_flexion_l	       ankle_angle_l	
          5.47500000	         90.00000000	          0.00000000	         21.27006981	
          5.48000000	         90.00000000	          0.00000000	         21.28539471	
          5.48500000	         90.00000000	          0.00000000	         21.30434122	
          5.49000000	         90.00000000	          0.00000000	         21.32784660	
          5.49500000	         90.00000000	          0.00000000	         21.35515396	
          5.50000000	         90.00000000	          0.00000000	         21.38561696	
          5.50500000	         90.00000000	          0.00000000	         21.41962514	
          5.51000000	         90.00000000	          0.00000000	         21.45782517	
          5.51500000	         90.00000000	          0.00000000	         21.50023698	
          5.52000000	         90.00000000	          0.00000000	         21.54595926	
          5.52500000	         90.00000000	          0.00000000	         21.59346412	
          5.53000000	         90.00000000	          0.00000000	         21.64061878	
          5.53500000	         90.00000000	          0.00000000	         21.68522297	
          5.54000000	         90.00000000	          0.00000000	         21.72581068	
          5.54500000	         90.00000000	          0.00000000	         21.76253934	
          5.55000000	         90.00000000	          0.00000000	         21.79695035	
          5.55500000	         90.00000000	          0.00000000	         21.83106097	
          5.56000000	         90.00000000	          0.00000000	         21.86561877	
          5.56500000	         90.00000000	          0.00000000	         21.90024350	
          5.57000000	         90.00000000	          0.00000000	         21.93441704	
          5.57500000	         90.00000000	          0.00000000	         21.96772444	
          5.58000000	         90.00000000	          0.00000000	         21.99927243	
          5.58500000	         90.00000000	          0.00000000	         22.02751068	
          5.59000000	         90.00000000	          0.00000000	         22.05245024	
          5.59500000	         90.00000000	          0.00000000	         22.07545123	
          5.60000000	         90.00000000	          0.00000000	         22.09849448	
          5.60500000	         90.00000000	          0.00000000	         22.12337943	
          5.61000000	         90.00000000	          0.00000000	         22.15067071	
          5.61500000	         90.00000000	          0.00000000	         22.18007864	
          5.62000000	         90.00000000	          0.00000000	         22.21136030	
          5.62500000	         90.00000000	          0.00000000	         22.24456641	
          5.63000000	         90.00000000	          0.00000000	         22.28006735	
          5.63500000	         90.00000000	          0.00000000	         22.31750237	
          5.64000000	         90.00000000	          0.00000000	         22.35563820	
          5.64500000	         90.00000000	          0.00000000	         22.39295160	
          5.65000000	         90.00000000	          0.00000000	         22.42821800	
          5.65500000	         90.00000000	          0.00000000	         22.46055724	
          5.66000000	         90.00000000	          0.00000000	         22.48936894	
          5.66500000	         90.00000000	          0.00000000	         22.51459580	
          5.67000000	         90.00000000	          0.00000000	         22.53697607	
          5.67500000	         90.00000000	          0.00000000	         22.55726646	
          5.68000000	         90.00000000	          0.00000000	         22.57538411	
          5.68500000	         90.00000000	          0.00000000	         22.59080690	
          5.69000000	         90.00000000	          0.00000000	         22.60440576	
          5.69500000	         90.00000000	          0.00000000	         22.61826362	
          5.70000000	         90.00000000	          0.00000000	         22.63343095	
          5.70500000	         90.00000000	          0.00000000	         22.64952025	
          5.71000000	         90.00000000	          0.00000000	         22.66575463	
          5.71500000	         90.00000000	          0.00000000	         22.68186313	
          5.72000000	         90.00000000	          0.00000000	         22.69866191	
          5.72500000	         90.00000000	          0.00000000	         22.71733281	
          5.73000000	         90.00000000	          0.00000000	         22.73897386	
          5.73500000	         90.00000000	          0.00000000	         22.76284180	
          5.74000000	         90.00000000	          0.00000000	         22.78601183	
          5.74500000	         90.00000000	          0.00000000	         22.80602132	
          5.75000000	         90.00000000	          0.00000000	         22.82226839	
          5.75500000	         90.00000000	          0.00000000	         22.83471506	
          5.76000000	         90.00000000	          0.00000000	         22.84305375	
